<svg width="652" height="652" viewBox="0 0 652 652" fill="none" xmlns="http://www.w3.org/2000/svg">
<path d="M468.295 166.561C499.485 225.718 505.111 285.12 493.247 341.832C481.26 398.667 451.782 452.69 406.526 474.691C361.27 496.813 300.235 486.913 241.28 462.468C182.325 438.023 125.326 399.033 117.865 352.71C110.404 306.387 152.48 252.73 195.045 191.006C237.488 129.405 280.543 59.7367 330.447 54.3588C380.351 48.8586 437.105 107.527 468.295 166.561Z" fill="#E8F4FF"/>
<path d="M255.366 330.91L244.525 307.918" stroke="#CCE3FF" stroke-width="12"/>
<path d="M267.401 294.829L244.526 307.918" stroke="#CCE3FF" stroke-width="12"/>
<path d="M267.135 295.111H276.465" stroke="#CCE3FF" stroke-width="12"/>
<path fill-rule="evenodd" clip-rule="evenodd" d="M248.392 333.001H268.735C268.735 331.149 267.235 329.648 265.385 329.648H251.742C249.892 329.648 248.392 331.149 248.392 333.001Z" fill="#DCEEFF"/>
<path fill-rule="evenodd" clip-rule="evenodd" d="M285.037 302.778C285.037 298.042 281.199 294.202 276.465 294.202C271.731 294.202 267.894 298.042 267.894 302.778" fill="#DCEEFF"/>
<path fill-rule="evenodd" clip-rule="evenodd" d="M224.809 417.372H226.73L238.536 338.673H231.892L224.809 417.372Z" fill="#B6D4FF"/>
<path fill-rule="evenodd" clip-rule="evenodd" d="M258.443 417.372H260.365L272.171 338.673H265.527L258.443 417.372Z" fill="#B6D4FF"/>
<path fill-rule="evenodd" clip-rule="evenodd" d="M305.57 308.908H334.292L327.552 331.138H298.831L305.57 308.908Z" fill="#DCEEFF"/>
<path fill-rule="evenodd" clip-rule="evenodd" d="M332.269 310.337L326.516 329.319H300.813L306.567 310.337H332.269Z" fill="white"/>
<path fill-rule="evenodd" clip-rule="evenodd" d="M327.579 316.18L327.305 317.087H306.207L306.481 316.18H327.579Z" fill="#B6D4FF"/>
<path fill-rule="evenodd" clip-rule="evenodd" d="M326.233 318.028L325.959 318.936H305.552L305.826 318.028H326.233Z" fill="#B6D4FF"/>
<path fill-rule="evenodd" clip-rule="evenodd" d="M319.84 319.877L319.566 320.785H304.914L305.188 319.877H319.84Z" fill="#B6D4FF"/>
<path fill-rule="evenodd" clip-rule="evenodd" d="M277.829 332.966H306.55V331.138H277.829V332.966Z" fill="#DCEEFF"/>
<path fill-rule="evenodd" clip-rule="evenodd" d="M306.551 332.966H327.542V331.138H306.551V332.966Z" fill="#ECF6FF"/>
<path fill-rule="evenodd" clip-rule="evenodd" d="M334.267 308.908H336.032L329.293 331.138H327.528L334.267 308.908Z" fill="#ECF6FF"/>
<path fill-rule="evenodd" clip-rule="evenodd" d="M217.044 338.673H325.54V332.966H217.044V338.673Z" fill="#B6D4FF"/>
<path fill-rule="evenodd" clip-rule="evenodd" d="M317.694 338.673H360.023V332.966H317.694V338.673Z" fill="#DCEEFF"/>
<path fill-rule="evenodd" clip-rule="evenodd" d="M354.651 417.372H356.572L349.488 338.673H342.845L354.651 417.372Z" fill="#DCEEFF"/>
<path fill-rule="evenodd" clip-rule="evenodd" d="M320.887 417.372H322.808L315.725 338.673H309.081L320.887 417.372Z" fill="#DCEEFF"/>
<path fill-rule="evenodd" clip-rule="evenodd" d="M328.631 312.593L328.358 313.501H307.26L307.534 312.593H328.631Z" fill="#B6D4FF"/>
<path fill-rule="evenodd" clip-rule="evenodd" d="M325.824 314.442L325.551 315.35H306.755L307.029 314.442H325.824Z" fill="#B6D4FF"/>
<path fill-rule="evenodd" clip-rule="evenodd" d="M321.434 310.099L317.844 310.534L317.556 310.083L317.746 309.671L317.473 309.343L320.826 308.908L321.333 309.21L320.909 309.634L321.434 310.099Z" fill="#B6D4FF"/>
<path fill-rule="evenodd" clip-rule="evenodd" d="M216.677 252.984H267.791V186.648H216.677V252.984Z" fill="#DCEEFF"/>
<path fill-rule="evenodd" clip-rule="evenodd" d="M216.677 252.984H267.791V186.648H216.677V252.984Z" stroke="#DCEEFF" stroke-width="5"/>
<path fill-rule="evenodd" clip-rule="evenodd" d="M214.021 252.984H264.142V186.648H214.021V252.984Z" fill="white"/>
<path fill-rule="evenodd" clip-rule="evenodd" d="M214.021 252.984H264.142V186.648H214.021V252.984Z" stroke="#DCEEFF" stroke-width="5"/>
<path fill-rule="evenodd" clip-rule="evenodd" d="M224.456 240.46H251.398V199.051H224.456V240.46Z" fill="#DCEEFF"/>
<path fill-rule="evenodd" clip-rule="evenodd" d="M304.283 230.346H363.642V153.311H304.283V230.346Z" fill="#DCEEFF"/>
<path fill-rule="evenodd" clip-rule="evenodd" d="M304.283 230.346H363.642V153.311H304.283V230.346Z" stroke="#DCEEFF" stroke-width="5"/>
<path fill-rule="evenodd" clip-rule="evenodd" d="M301.199 230.346H359.405V153.311H301.199V230.346Z" fill="white"/>
<path fill-rule="evenodd" clip-rule="evenodd" d="M301.199 230.346H359.405V153.311H301.199V230.346Z" stroke="#DCEEFF" stroke-width="5"/>
<path fill-rule="evenodd" clip-rule="evenodd" d="M313.317 215.802H344.605V167.714H313.317V215.802Z" fill="#DCEEFF"/>
<path fill-rule="evenodd" clip-rule="evenodd" d="M442.796 231.447H474.289V190.484H442.796V231.447Z" fill="#DCEEFF"/>
<path fill-rule="evenodd" clip-rule="evenodd" d="M442.796 231.447H474.289V190.484H442.796V231.447Z" stroke="#DCEEFF" stroke-width="5"/>
<path fill-rule="evenodd" clip-rule="evenodd" d="M441.159 231.447H472.041V190.484H441.159V231.447Z" fill="white"/>
<path fill-rule="evenodd" clip-rule="evenodd" d="M441.159 231.447H472.041V190.484H441.159V231.447Z" stroke="#DCEEFF" stroke-width="5"/>
<path fill-rule="evenodd" clip-rule="evenodd" d="M447.589 223.713H464.189V198.143H447.589V223.713Z" fill="#DCEEFF"/>
<path fill-rule="evenodd" clip-rule="evenodd" d="M180.451 229.138C180.451 229.138 187.497 238.32 177.931 240.757L180.451 229.138Z" fill="#19141E"/>
<path fill-rule="evenodd" clip-rule="evenodd" d="M167.323 260.702L167.089 252.606C167.089 252.606 177.172 253.389 179.277 252.296C179.277 252.296 180.876 242.458 179.355 235.483L171.076 228.006L157.713 228.99L156.197 241.085C155.498 239.022 149.133 236.436 147.605 241.064C145.634 247.031 156.991 250.166 156.991 250.166L155.804 260.799" fill="#E576C6"/>
<path fill-rule="evenodd" clip-rule="evenodd" d="M150.97 238.485C150.97 238.485 144.483 235.845 152.041 228.025C159.599 220.205 166.335 224.263 166.335 224.263C166.335 224.263 168.234 216.295 173.492 216.318C180.983 216.35 182.139 227.925 182.139 227.925C182.139 227.925 185.915 221.63 188.061 222.53C190.208 223.43 190.267 244.337 160.463 234.148C160.463 234.148 163.026 239.914 156.197 241.085C156.197 241.085 155.006 238.624 150.97 238.485Z" fill="#19141E"/>
<path d="M153.819 221.848L154.758 227.07L152.802 228.006L149.188 224.324" stroke="#19141E" stroke-width="9"/>
<path opacity="0.4" fill-rule="evenodd" clip-rule="evenodd" d="M167.089 252.606L160.456 251.183L167.058 255.643L167.089 252.606Z" fill="black"/>
<path fill-rule="evenodd" clip-rule="evenodd" d="M172.686 240.423L174.979 246.028L172.231 246.063L172.686 240.423Z" fill="#125475"/>
<path fill-rule="evenodd" clip-rule="evenodd" d="M169.948 240.968C170.084 241.723 169.583 242.445 168.828 242.582C168.074 242.718 167.351 242.217 167.215 241.462C167.078 240.708 167.579 239.985 168.334 239.849C169.089 239.712 169.811 240.213 169.948 240.968Z" fill="#0D0B6D"/>
<path fill-rule="evenodd" clip-rule="evenodd" d="M177.156 240.968C177.293 241.723 176.792 242.445 176.037 242.582C175.283 242.718 174.56 242.217 174.424 241.462C174.287 240.708 174.788 239.985 175.543 239.849C176.298 239.712 177.02 240.213 177.156 240.968Z" fill="#0D0B6D"/>
<path fill-rule="evenodd" clip-rule="evenodd" d="M169.137 246.948C169.137 246.948 170.019 248.551 171.925 248.513L169.137 246.948Z" fill="white"/>
<g clip-path="url(#clip0)">
<path fill-rule="evenodd" clip-rule="evenodd" d="M168.32 408.875L168.379 403.749L161.793 400.419L160.837 415.075H183.656C179.773 410.685 168.32 408.875 168.32 408.875ZM141.829 409.075L141.889 403.317L135.574 407.747L134.561 408.757L132.999 415.075H148.617C146.653 409.707 141.829 409.075 141.829 409.075Z" fill="#0D0B6D"/>
<path fill-rule="evenodd" clip-rule="evenodd" d="M134.561 408.757L135.934 401.331L142.52 403.317L141.829 409.075L134.561 408.757ZM161.262 408.557L161.792 401.763L168.379 403.749L168.319 408.875L161.262 408.557Z" fill="#CF3E83"/>
<path fill-rule="evenodd" clip-rule="evenodd" d="M168.971 303.96H174.563L172.918 401.006H173.806V406.718H156.392V401.006H157.377L156.391 364.611L148.864 400.9H149.898L149.266 406.823H131.852L132.484 400.9H133.636L146.602 303.96H154.749H168.971Z" fill="#2F2F3D"/>
<path opacity="0.200358" fill-rule="evenodd" clip-rule="evenodd" d="M156.1 367.975L163.356 321.042L156.758 381.531L156.1 367.975Z" fill="black"/>
</g>
<path fill-rule="evenodd" clip-rule="evenodd" d="M203.157 276.024C200.183 281.9 189.743 301.187 182.3 298.11C176.728 295.807 170.057 276.71 170.057 276.71L180.901 270.217L185.773 283.341L195.723 272.465C195.385 270.31 195.114 267.493 195.788 266.5C196.934 264.81 202.735 259.602 202.735 259.602L203.792 268.426L203.976 267.682C203.976 267.641 203.986 267.596 204.007 267.547C204.009 267.543 204.011 267.538 204.013 267.533L204.44 265.812C204.261 265.721 204.188 265.591 204.265 265.411C204.328 265.266 204.465 265.106 204.657 264.938L206.115 259.059C206.115 259.059 206.593 259.273 207.295 259.594C208.423 259.36 212.51 262.155 212.572 262.198L212.573 262.198C213.405 262.739 211.426 271.675 209.818 273.335C208.675 274.516 205.116 275.535 203.157 276.024ZM136.724 315.873L137.388 317.142C137.388 317.142 137.989 318.178 138.618 319.988C139.248 321.797 138.986 322.904 140.348 325.746C141.893 328.971 139.129 327.641 138.138 326.233C137.364 325.134 137.452 323.649 136.449 322.983C136.113 323.523 135.345 324.294 134.916 328.948C134.84 329.783 135.216 332.491 135.216 332.491C135.224 333.302 135.327 334.994 134.409 335.252C134.182 335.316 133.886 335.063 133.886 335.063C133.886 335.063 133.975 336.122 133.037 336.333C132.668 336.416 131.935 334.13 131.935 334.13C131.935 334.13 131.823 335.29 131.123 335.42C130.925 335.456 128.586 328.833 128.586 328.833L128.727 330.329L129.037 331.861C129.037 331.861 129.012 332.686 128.354 332.832C128.093 332.889 127.591 331.514 127.121 329.896C126.389 327.378 126.404 325.486 126.619 323.604C126.879 321.33 126.764 320.566 127.769 317.778C127.89 317.444 128.051 317.061 128.232 316.668C127.68 311.874 126.124 297.842 126.315 293.534C126.546 288.309 132.048 276.71 132.048 276.71L143.218 282.994L137.062 294.281L136.724 315.873ZM163.448 263.898C156.978 263.515 154.248 259.469 153.625 258.375C157.731 258.09 158.16 258.132 163.628 258.702C165.846 258.933 167.401 259.407 168.907 259.823C169.233 260.936 169.697 264.265 163.448 263.898Z" fill="#E576C6"/>
<path fill-rule="evenodd" clip-rule="evenodd" d="M142.882 306.215H178.719L180.032 283.959L186.322 280.271L181.915 270.077L181.876 270.085C181.693 269.714 181.491 269.33 181.271 268.93C178.536 263.974 173.858 261.179 168.907 259.823C168.827 259.801 168.795 259.785 168.791 259.79C168.782 259.803 168.953 259.949 169.002 260.457C169.071 261.168 168.848 262.132 168.614 262.425C168.06 263.117 167.224 263.509 166.888 263.601C166.552 263.694 166.285 263.747 165.988 263.807C165.779 263.849 164.593 263.937 164.389 263.926C162.701 263.838 161.874 263.759 160.812 263.505C160.435 263.415 160.046 263.313 159.585 263.117C159.498 263.081 159.403 263.042 159.302 263C158.803 262.793 158.139 262.519 157.464 262.139C156.751 261.738 156.024 261.209 155.497 260.669C155.447 260.617 155.397 260.566 155.349 260.517C154.796 259.95 154.419 259.564 154.158 259.177C153.981 258.914 153.915 258.827 153.876 258.776C153.852 258.745 153.838 258.727 153.816 258.692C153.758 258.597 153.708 258.514 153.694 258.459C153.679 258.399 153.734 258.373 153.732 258.367C153.73 258.363 153.706 258.367 153.625 258.375C151.103 258.626 148.392 259.281 145.436 260.669C136.293 264.96 130.949 275.742 130.949 275.742L142.281 284.267L142.882 306.215Z" fill="#5E93D1"/>
<path opacity="0.200521" d="M142.28 284.266L145.155 286.223L152.064 278.151" stroke="black" stroke-width="5"/>
<path fill-rule="evenodd" clip-rule="evenodd" d="M207.905 269.997L207.404 272.461H199.296L203.121 252.842H211.229C211.019 253.92 210.524 256.459 209.744 260.46L208.149 259.718L207.653 259.58L207.262 259.602L207.092 259.718V260.195L208.826 262.696L207.5 263.276L205.46 264.349L204.871 264.759L204.642 264.971L204.456 265.139L204.337 265.283L204.265 265.411L204.235 265.578L204.265 265.652L204.301 265.709L204.352 265.761L205.021 265.998L206.546 265.578H208.054L206.042 265.998L204.716 266.794L204.265 267.22L204.011 267.533V267.819L204.456 268.02L207.262 267.697L206.333 268.204L205.717 268.587L205.152 268.879L204.716 269.444V269.723L204.871 269.887L205.262 270.096H205.86H207.064L207.905 269.997Z" fill="#5E93D1"/>
<path fill-rule="evenodd" clip-rule="evenodd" d="M199.295 272.461H197.953L201.778 252.842H203.119L199.295 272.461Z" fill="#020101"/>
<path fill-rule="evenodd" clip-rule="evenodd" d="M204.516 255.12C204.404 255.693 204.071 256.111 203.774 256.052C203.476 255.994 203.325 255.482 203.437 254.909C203.55 254.336 203.882 253.918 204.18 253.977C204.477 254.035 204.628 254.547 204.516 255.12Z" fill="#020101"/>
<g clip-path="url(#clip1)">
<path fill-rule="evenodd" clip-rule="evenodd" d="M413.192 230.986C413.192 234.623 415.535 237.571 418.425 237.571C421.315 237.571 423.658 234.623 423.658 230.986C423.658 227.349 421.315 224.401 418.425 224.401C415.535 224.401 413.192 227.349 413.192 230.986Z" fill="#19141E"/>
<path fill-rule="evenodd" clip-rule="evenodd" d="M425.576 257.072L425.795 249.509C425.795 249.509 416.607 250.241 414.642 249.22C414.642 249.22 412.24 236.839 415.105 229.983L415.163 229.716L434.552 227.448L435.639 238.577C436.292 236.65 441.682 234.465 443.091 237.225C446.144 243.204 435.227 247.23 435.227 247.23L436.335 257.163" fill="#E576C6"/>
<path opacity="0.398926" fill-rule="evenodd" clip-rule="evenodd" d="M425.795 249.509L431.99 248.18L425.824 252.346L425.795 249.509Z" fill="black"/>
<path fill-rule="evenodd" clip-rule="evenodd" d="M420.843 238.436L418.702 243.672L421.268 243.704L420.843 238.436Z" fill="#405FD3"/>
<path fill-rule="evenodd" clip-rule="evenodd" d="M423.125 238.637C422.997 239.342 423.465 240.017 424.17 240.145C424.875 240.272 425.55 239.804 425.677 239.099C425.805 238.394 425.337 237.719 424.632 237.592C423.927 237.464 423.252 237.932 423.125 238.637Z" fill="#0D0B6D"/>
<path fill-rule="evenodd" clip-rule="evenodd" d="M415.931 238.637C415.803 239.342 416.271 240.017 416.976 240.145C417.681 240.272 418.356 239.804 418.483 239.099C418.611 238.394 418.143 237.719 417.438 237.592C416.733 237.464 416.058 237.932 415.931 238.637Z" fill="#0D0B6D"/>
<path fill-rule="evenodd" clip-rule="evenodd" d="M431.321 231.682C431.249 230.141 431.034 229.609 422.676 231.73C410.991 234.694 406.705 223.026 411.313 220.361C412.59 219.623 413.919 220.052 415.451 220.548C417.154 221.098 419.109 221.73 421.522 220.927C428.339 218.661 432.996 220.331 435.697 221.536C438.365 222.726 441.668 226.873 440.984 231.417C440.729 233.115 440.366 234.712 439.89 236.089C438.696 236.37 436.036 237.33 434.198 240.477C432.329 239.595 431.552 236.664 431.321 231.682Z" fill="#19141E"/>
<path fill-rule="evenodd" clip-rule="evenodd" d="M424.406 243.899C424.406 243.899 423.582 245.396 421.802 245.361L424.406 243.899Z" fill="white"/>
</g>
<path fill-rule="evenodd" clip-rule="evenodd" d="M425.816 410.416L425.756 405.199L432.456 401.81L433.428 416.726H410.215C414.165 412.259 425.816 410.416 425.816 410.416ZM455.551 410.62L455.491 404.759L459.859 408.33L463.374 410.296L464.534 416.726H448.646C450.644 411.263 455.551 410.62 455.551 410.62Z" fill="#0D0B6D"/>
<path fill-rule="evenodd" clip-rule="evenodd" d="M463.374 410.295L462.191 402.737L455.491 404.759L455.551 410.62L463.374 410.295ZM432.996 410.092L432.456 403.177L425.755 405.199L425.816 410.416L432.996 410.092Z" fill="#CF3E83"/>
<path fill-rule="evenodd" clip-rule="evenodd" d="M422.703 400.847L421.775 303.595H437.264L437.264 303.632H450.052L464.204 400.688C464.358 401.743 463.911 402.731 463.139 403.331L463.937 408.331H454.67L454.092 403.803C453.126 403.508 452.365 402.708 452.148 401.678L436.777 328.448L435.354 400.982C435.33 402.116 434.623 403.075 433.633 403.473L433.787 408.331H424.95L424.795 403.488C423.602 403.195 422.716 402.125 422.703 400.847Z" fill="#2F2F3D"/>
<path opacity="0.197824" fill-rule="evenodd" clip-rule="evenodd" d="M436.855 329.598L434.143 317.525L436.184 354.125L436.855 329.598Z" fill="black"/>
<path fill-rule="evenodd" clip-rule="evenodd" d="M446.744 303.723L445.26 303.966L461.447 402.873L462.936 402.624L446.744 303.723Z" fill="#EFEFEF"/>
<mask id="mask0" mask-type="alpha" maskUnits="userSpaceOnUse" x="445" y="303" width="18" height="100">
<path fill-rule="evenodd" clip-rule="evenodd" d="M446.744 303.723L445.26 303.966L461.447 402.873L462.936 402.624L446.744 303.723Z" fill="white"/>
</mask>
<g mask="url(#mask0)">
<path d="M445.242 303.631H463.462V402.838H445.242V303.631Z" fill="#EFEFEF"/>
</g>
<path fill-rule="evenodd" clip-rule="evenodd" d="M404.682 277.793L410.265 280.771L411.647 304.126H450.175L450.822 280.562L463.004 271.41C463.004 271.41 457.259 259.835 447.429 255.228C444.868 254.03 441.646 253.393 438.428 253.089C431.973 252.479 425.539 253.188 424.493 253.315L424.345 253.332C424.162 253.387 423.98 253.442 423.803 253.497C423.8 253.497 423.797 253.5 423.794 253.5C423.273 253.662 422.78 253.819 422.311 253.972C415.79 256.116 413.727 257.852 410.073 262.992C406.6 267.876 404.682 277.793 404.682 277.793Z" fill="#FCBDA4"/>
<path opacity="0.200219" d="M450.821 280.561L447.731 282.662L440.302 273.996" stroke="black" stroke-width="5"/>
<path fill-rule="evenodd" clip-rule="evenodd" d="M420.421 297.306C420.421 297.306 419.205 297.615 419.181 298.379C419.181 298.596 426.595 299.997 426.595 299.997L424.981 300.092L423.304 300.011C423.304 300.011 422.432 300.173 422.383 300.897C422.365 301.183 423.91 301.49 425.705 301.724C428.499 302.092 430.506 301.768 432.471 301.232C432.636 301.186 432.795 301.145 432.948 301.105L431.352 290.853C430.816 291.342 429.802 292.21 425.439 293.298C424.564 293.515 421.627 293.555 421.627 293.555C420.763 293.68 418.95 293.848 418.825 294.863C418.793 295.115 419.109 295.387 419.109 295.387C419.109 295.387 417.97 295.465 417.901 296.495C417.872 296.9 420.421 297.306 420.421 297.306Z" fill="#18181C"/>
<path fill-rule="evenodd" clip-rule="evenodd" d="M407.785 311.583H434.737L428.693 274.425H401.741L407.785 311.583Z" fill="#18181C"/>
<path fill-rule="evenodd" clip-rule="evenodd" d="M406.337 311.583H433.289L427.245 274.425H400.292L406.337 311.583Z" fill="#5E93D1"/>
<path fill-rule="evenodd" clip-rule="evenodd" d="M412.612 310.307H406.406L405.014 301.749L402.161 313.925C400.399 315.943 398.366 318.325 398.059 318.912C397.502 319.975 396.471 325.239 396.52 326.279C396.569 327.319 399.781 331.992 399.781 331.992C401.773 331.518 400.472 329.105 400.472 329.105C400.472 329.105 402.256 330.571 402.999 330.546C409.987 330.315 409.613 326.878 409.447 326.448C409.076 325.481 407.211 326.586 407.211 326.586C407.211 326.586 410.45 320.202 410.03 315.324C410.756 313.955 411.649 312.236 412.612 310.307ZM439.448 289.388L437.578 288.749C437.578 288.749 436.379 288.28 434.354 287.907C433.081 287.672 432.16 287.765 430.848 287.623L431.294 290.485C431.378 290.546 431.454 290.618 431.526 290.696C431.471 290.742 431.416 290.795 431.352 290.852C430.816 291.341 429.802 292.21 425.439 293.298C424.564 293.515 421.627 293.555 421.627 293.555C420.763 293.68 418.95 293.847 418.825 294.863C418.793 295.115 419.109 295.387 419.109 295.387C419.109 295.387 417.97 295.465 417.901 296.495C417.872 296.9 420.421 297.305 420.421 297.305C420.421 297.305 419.205 297.615 419.181 298.379C419.181 298.596 426.595 299.997 426.595 299.997L424.981 300.092L423.304 300.011C423.304 300.011 422.432 300.173 422.383 300.897C422.365 301.183 423.91 301.49 425.705 301.724C428.499 302.092 430.506 301.768 432.47 301.232C432.636 301.186 432.795 301.145 432.948 301.105C434.971 300.575 435.872 300.477 438.473 299.062C438.714 298.931 438.979 298.773 439.253 298.599C445.93 299.232 466.168 300.789 468.196 296.625C472.207 288.389 461.65 272.45 461.65 272.45L449.965 280.613L453.678 286.914L439.448 289.388ZM428.061 258.695C434.484 258.315 437.477 254.585 438.427 253.089C431.972 252.479 425.538 253.188 424.492 253.315C424.245 253.379 424.014 253.44 423.802 253.497C423.799 253.497 423.796 253.5 423.794 253.5C422.898 253.746 422.328 253.937 422.328 253.937C422.328 253.937 422.322 253.949 422.31 253.972C422.13 254.421 420.39 259.143 428.061 258.695Z" fill="#E576C6"/>
<path opacity="0.199382" d="M405.715 318.431C405.715 318.431 404.734 322.028 401.369 323.15C400.192 323.542 400.486 328.169 397.602 327.616" stroke="black" stroke-width="3"/>
<path fill-rule="evenodd" clip-rule="evenodd" d="M424.728 277.422C424.848 278.037 425.205 278.486 425.526 278.423C425.845 278.36 426.007 277.811 425.887 277.195C425.766 276.58 425.409 276.132 425.089 276.195C424.769 276.257 424.607 276.807 424.728 277.422Z" fill="#020101"/>
<defs>
<clipPath id="clip0">
<rect x="101.211" y="265.587" width="124.869" height="150.135" fill="white"/>
</clipPath>
<clipPath id="clip1">
<rect width="51.5977" height="48.9613" transform="matrix(-1 0 0 1 453.288 208.389)" fill="white"/>
</clipPath>
</defs>
</svg>
