<svg width="22" height="22" viewBox="0 0 22 22" fill="none" xmlns="http://www.w3.org/2000/svg">
<path d="M10.7229 10.3587L0.618363 10.3587C0.274828 10.3587 -1.52166e-07 10.6335 -1.3715e-07 10.9771C-1.22133e-07 11.3206 0.274828 11.5954 0.618363 11.5954L10.7229 11.5954C11.0115 13.0291 12.2802 14.1147 13.801 14.1147C15.3217 14.1147 16.5905 13.0291 16.879 11.5954L21.3771 11.5954C21.7206 11.5954 21.9954 11.3206 21.9954 10.9771C21.9954 10.6335 21.7206 10.3587 21.3771 10.3587L16.879 10.3587C16.5905 8.92503 15.3217 7.83945 13.801 7.83946C12.2848 7.83946 11.0115 8.92045 10.7229 10.3587ZM15.7019 10.9771C15.7019 12.026 14.8499 12.878 13.801 12.878C12.752 12.878 11.9001 12.026 11.9001 10.9771C11.9001 9.92815 12.752 9.07618 13.801 9.07618C14.8499 9.07618 15.7019 9.92815 15.7019 10.9771Z" fill="black"/>
<path d="M5.53779 17.9302L0.618363 17.9302C0.274828 17.9302 -1.52166e-07 18.2051 -1.3715e-07 18.5486C-1.22133e-07 18.8921 0.274828 19.167 0.618363 19.167L5.53779 19.167C5.82636 20.6006 7.09515 21.6862 8.61587 21.6862C10.1366 21.6862 11.4054 20.6006 11.6939 19.167L21.3771 19.167C21.7206 19.167 21.9954 18.8921 21.9954 18.5486C21.9954 18.2051 21.7206 17.9302 21.3771 17.9302L11.6894 17.9302C11.4008 16.4965 10.132 15.411 8.61128 15.411C7.09057 15.411 5.82636 16.4965 5.53779 17.9302ZM10.5168 18.5486C10.5168 19.5975 9.66479 20.4495 8.61587 20.4495C7.56694 20.4495 6.71497 19.5975 6.71497 18.5486C6.71497 17.4997 7.56694 16.6477 8.61587 16.6477C9.66479 16.6477 10.5168 17.5042 10.5168 18.5486Z" fill="black"/>
<path d="M5.53779 2.833L0.618363 2.833C0.274828 2.833 -1.52166e-07 3.10783 -1.3715e-07 3.45137C-1.22133e-07 3.7949 0.274828 4.06973 0.618363 4.06973L5.53779 4.06973C5.82636 5.50342 7.09515 6.58899 8.61587 6.58899C10.1366 6.58899 11.4054 5.50342 11.6939 4.06973L21.3816 4.06973C21.7252 4.06973 22 3.7949 22 3.45137C22 3.10783 21.7252 2.833 21.3816 2.833L11.6894 2.833C11.4008 1.39931 10.132 0.313743 8.61128 0.313743C7.09057 0.313743 5.82636 1.39473 5.53779 2.833ZM10.5168 3.45137C10.5168 4.50029 9.66479 5.35226 8.61587 5.35226C7.56694 5.35226 6.71497 4.50029 6.71497 3.45137C6.71497 2.40244 7.56694 1.55047 8.61587 1.55047C9.66479 1.55047 10.5168 2.40244 10.5168 3.45137Z" fill="black"/>
</svg>
