<svg width="16" height="14" viewBox="0 0 16 14" fill="none" xmlns="http://www.w3.org/2000/svg">
<path d="M4.375 0.125L4.90625 0.625C4.96875 0.708333 5 0.802083 5 0.90625C5 0.989583 4.96875 1.07292 4.90625 1.15625L2.625 3.40625L2.15625 3.90625C2.07292 3.96875 1.97917 4 1.875 4C1.77083 4 1.67708 3.96875 1.59375 3.90625L0.125 2.40625C0.0416667 2.34375 0 2.26042 0 2.15625C0 2.05208 0.0416667 1.95833 0.125 1.875L0.59375 1.40625C0.677083 1.32292 0.770833 1.28125 0.875 1.28125C0.979167 1.28125 1.0625 1.32292 1.125 1.40625L1.84375 2.09375L3.84375 0.125C3.90625 0.0416667 3.98958 0 4.09375 0C4.19792 0 4.29167 0.0416667 4.375 0.125ZM4.375 5.09375L4.90625 5.625C4.96875 5.6875 5 5.77083 5 5.875C5 5.97917 4.95833 6.07292 4.875 6.15625L2.625 8.40625L2.15625 8.875C2.07292 8.95833 1.97917 9 1.875 9C1.77083 9 1.67708 8.95833 1.59375 8.875L0.125 7.40625C0.0416667 7.32292 0 7.23958 0 7.15625C0 7.05208 0.0416667 6.95833 0.125 6.875L0.59375 6.375C0.677083 6.3125 0.770833 6.28125 0.875 6.28125C0.979167 6.28125 1.0625 6.3125 1.125 6.375L1.84375 7.0625L3.84375 5.09375C3.90625 5.01042 3.98958 4.96875 4.09375 4.96875C4.19792 4.96875 4.29167 5.01042 4.375 5.09375ZM0.90625 10.9375C1.21875 10.6458 1.58333 10.5 2 10.5C2.41667 10.5 2.77083 10.6458 3.0625 10.9375C3.35417 11.2292 3.5 11.5833 3.5 12C3.5 12.4167 3.35417 12.7708 3.0625 13.0625C2.77083 13.3542 2.41667 13.5 2 13.5C1.58333 13.5 1.21875 13.3542 0.90625 13.0625C0.614583 12.7708 0.46875 12.4167 0.46875 12C0.46875 11.5833 0.614583 11.2292 0.90625 10.9375ZM15.5 11C15.6458 11 15.7604 11.0521 15.8438 11.1562C15.9479 11.2396 16 11.3542 16 11.5V12.5C16 12.6458 15.9479 12.7708 15.8438 12.875C15.7604 12.9583 15.6458 13 15.5 13H6.5C6.35417 13 6.22917 12.9583 6.125 12.875C6.04167 12.7708 6 12.6458 6 12.5V11.5C6 11.3542 6.04167 11.2396 6.125 11.1562C6.22917 11.0521 6.35417 11 6.5 11H15.5ZM15.5 1C15.6458 1 15.7604 1.05208 15.8438 1.15625C15.9479 1.23958 16 1.35417 16 1.5V2.5C16 2.64583 15.9479 2.77083 15.8438 2.875C15.7604 2.95833 15.6458 3 15.5 3H6.5C6.35417 3 6.22917 2.95833 6.125 2.875C6.04167 2.77083 6 2.64583 6 2.5V1.5C6 1.35417 6.04167 1.23958 6.125 1.15625C6.22917 1.05208 6.35417 1 6.5 1H15.5ZM15.5 6C15.6458 6 15.7604 6.05208 15.8438 6.15625C15.9479 6.23958 16 6.35417 16 6.5V7.5C16 7.64583 15.9479 7.77083 15.8438 7.875C15.7604 7.95833 15.6458 8 15.5 8H6.5C6.35417 8 6.22917 7.95833 6.125 7.875C6.04167 7.77083 6 7.64583 6 7.5V6.5C6 6.35417 6.04167 6.23958 6.125 6.15625C6.22917 6.05208 6.35417 6 6.5 6H15.5Z" fill="#000000"/>
</svg>
