<svg width="20" height="20" viewBox="0 0 20 20" fill="none" xmlns="http://www.w3.org/2000/svg">
<path d="M9.66123 18.854H4.44476C3.0271 18.854 1.87685 17.6995 1.87685 16.2861V3.71392C1.87685 2.29626 3.03134 1.14601 4.44476 1.14601H9.74612C10.0645 1.14601 10.3191 0.891341 10.3191 0.573005C10.3191 0.254669 10.0645 0 9.74612 0H4.44476C2.39467 0 0.730835 1.66808 0.730835 3.71392V16.2861C0.730835 18.3362 2.39892 20 4.44476 20H9.66123C9.97956 20 10.2342 19.7453 10.2342 19.427C10.2342 19.1087 9.97532 18.854 9.66123 18.854Z" fill="black"/>
<path d="M19.1009 9.59677L15.4592 5.955C15.2342 5.73005 14.8734 5.73005 14.6485 5.955C14.4235 6.17996 14.4235 6.54074 14.6485 6.7657L17.314 9.43123H5.68836C5.37003 9.43123 5.11536 9.6859 5.11536 10.0042C5.11536 10.3226 5.37003 10.5772 5.68836 10.5772H17.314L14.6485 13.2428C14.4235 13.4677 14.4235 13.8285 14.6485 14.0535C14.7588 14.1638 14.9074 14.2233 15.0517 14.2233C15.196 14.2233 15.3446 14.1681 15.4549 14.0535L19.0967 10.4117C19.3259 10.1825 19.3259 9.81748 19.1009 9.59677Z" fill="black"/>
</svg>
