<svg width="49" height="49" viewBox="0 0 49 49" fill="none" xmlns="http://www.w3.org/2000/svg">
<g clip-path="url(#clip0)">
<path d="M22.1355 41.743C22.1691 42.1486 22.1859 42.5625 22.1859 42.9849C22.1859 46.305 21.0539 49 19.6517 49C18.249 49 17.117 46.305 17.117 42.9849C17.1099 41.8821 17.2464 40.783 17.5226 39.7153L22.1355 41.743Z" fill="#E57E25"/>
<path d="M13.1042 14.1256C12.5692 13.7199 12.0044 13.3554 11.4145 13.0358C8.49962 11.4305 5.58516 11.1348 4.91785 12.3599C4.25017 13.585 6.05807 15.8744 8.9729 17.4797C9.89255 17.9956 10.875 18.39 11.896 18.6539L13.1042 14.1256Z" fill="#E57E25"/>
<path d="M41.1101 19.6255C41.8813 19.3163 42.62 18.9313 43.315 18.4763C46.1113 16.6684 47.7588 14.2523 46.9984 13.0781C46.238 11.9035 43.3658 12.4104 40.5695 14.2183C40.3415 14.3704 40.113 14.5226 39.9018 14.683L41.1101 19.6255Z" fill="#E57E25"/>
<path d="M35.2976 39.7153C35.5739 40.783 35.7103 41.8821 35.7032 42.9849C35.7032 46.305 34.5713 49 33.1686 49C31.7663 49 30.6343 46.305 30.6343 42.9849C30.6343 42.5625 30.6512 42.1486 30.6848 41.743L35.2976 39.7153Z" fill="#E57E25"/>
<path d="M17.0239 39.3519C16.0863 41.9965 14.8613 44.2859 13.2814 45.2911C12.3614 45.8923 11.2885 46.2175 10.1894 46.2291C8.82187 46.216 7.50708 45.6982 6.49771 44.776C4.25018 42.7905 2.29873 39.5886 4.56271 34.7986C5.38254 33.058 5.39077 32.0527 5.15413 31.7233C4.83113 31.3316 4.31336 31.1577 3.81952 31.2755C3.20455 31.391 2.57612 31.157 2.18621 30.6672C1.79629 30.1779 1.70919 29.5128 1.95929 28.9394C2.20939 28.3659 2.75631 27.9775 3.38025 27.93C5.09805 27.6526 6.8293 28.3442 7.88316 29.7297C9.01515 31.2841 8.92206 33.4722 7.61287 36.2431C6.10032 39.445 7.4353 41.0925 8.73626 42.2413C9.48058 42.9621 10.635 43.044 11.4735 42.4357C12.5382 41.7598 13.5181 39.4114 14.3289 36.5896L17.0239 39.3519Z" fill="#E57E25"/>
<path d="M41.617 25.3449C41.617 37.0121 34.8079 42.2413 26.41 42.2413C26.1314 42.2413 25.844 42.2331 25.5654 42.2245C17.5649 41.878 11.2032 36.6233 11.2032 25.3449C11.2623 20.0042 12.4908 14.7416 14.8022 9.92658L20.3021 2.4752C21.7743 1.1589 23.608 0.314398 25.5654 0.0508404C26.1266 -0.0168247 26.6937 -0.0168247 27.2548 0.0508404C29.2123 0.314398 31.0459 1.1589 32.5181 2.4752L38.0181 9.92658C40.3295 14.7416 41.558 20.0042 41.617 25.3449Z" fill="#F29C1F"/>
<path d="M39.9273 25.3449C39.9273 36.6233 33.566 41.878 25.5654 42.2245C17.5649 41.878 11.2032 36.6233 11.2032 25.3449C11.2623 20.0042 12.4908 14.7416 14.8022 9.92658L20.3021 2.4752C21.7743 1.15891 23.608 0.3144 25.5654 0.0508423C27.5229 0.3144 29.3562 1.15891 30.8287 2.4752L36.3283 9.92658C38.6398 14.7416 39.8682 20.0042 39.9273 25.3449Z" fill="#F0C419"/>
<path d="M23.0308 5.0689L19.4741 8.17776C17.286 4.77319 13.9237 1.55443 11.9296 0.751793C11.9891 0.278885 12.0481 0 12.0481 0C19.6517 0 23.0308 5.0689 23.0308 5.0689Z" fill="#F0C419"/>
<path d="M18.9156 8.66711L16.7436 10.5696C16.4662 10.8208 16.0549 10.8552 15.739 10.6541C11.5049 7.82635 11.684 2.67034 11.9296 0.753662C13.8029 1.50732 16.883 4.393 19.0636 7.56279C19.2984 7.91607 19.2352 8.38823 18.9156 8.66711Z" fill="#FF5364"/>
<path d="M40.8907 0.751793C38.8966 1.55443 35.5343 4.77319 33.3462 8.17776L29.7895 5.0689C29.7895 5.0689 33.1686 0 40.7722 0C40.7722 0 40.8312 0.278885 40.8907 0.751793Z" fill="#F0C419"/>
<path d="M36.0767 10.5696L33.9047 8.66712C33.5854 8.38712 33.5234 7.91383 33.76 7.5613C35.9373 4.39301 39.0173 1.50546 40.8907 0.751801C41.1336 2.66885 41.3127 7.82486 37.0812 10.6526C36.7657 10.8541 36.3549 10.8201 36.0767 10.5696Z" fill="#FF5364"/>
<path d="M33.1686 15.2071C33.172 17.1204 32.3607 18.9451 30.9383 20.2251C30.5199 20.061 30.0911 19.9257 29.6541 19.8195C31.388 17.9653 31.936 15.2957 31.0736 12.9083C30.2115 10.5206 28.0836 8.81741 25.5654 8.4989C25.8454 8.46488 26.1277 8.44806 26.4099 8.44843C30.1427 8.44843 33.1686 11.4743 33.1686 15.2071Z" fill="#E6E7E8"/>
<path d="M31.4792 15.2071C31.4841 16.9215 30.831 18.5724 29.6541 19.8195C28.5932 19.5567 27.5034 19.4263 26.4099 19.4311C26.1228 19.4311 25.8439 19.4393 25.5654 19.4648C24.3048 19.5205 23.0614 19.7769 21.882 20.2252C21.7384 20.0984 21.6031 19.9631 21.4764 19.8195C19.7429 17.9653 19.1944 15.2957 20.0569 12.9083C20.9193 10.5206 23.0469 8.81741 25.5654 8.4989C28.9453 8.92471 31.4803 11.7999 31.4792 15.2071Z" fill="white"/>
<path d="M27.2548 0.0508404V3.37914C27.2548 3.84607 26.8769 4.22402 26.4099 4.22402C25.9434 4.22402 25.5654 3.84607 25.5654 3.37914V0.0508404C26.1266 -0.0168247 26.6937 -0.0168247 27.2548 0.0508404Z" fill="#F29C1F"/>
<path d="M30.6343 15.2071C30.6343 17.5398 28.7431 19.4311 26.4099 19.4311C24.0772 19.4311 22.1859 17.5398 22.1859 15.2071C22.1859 12.8739 24.0772 10.9827 26.4099 10.9827C28.7431 10.9827 30.6343 12.8739 30.6343 15.2071Z" fill="#FF5364"/>
<path d="M28.9446 15.2071C28.9446 16.6067 27.81 17.7413 26.4099 17.7413C25.0103 17.7413 23.8757 16.6067 23.8757 15.2071C23.8757 13.807 25.0103 12.6724 26.4099 12.6724C27.81 12.6724 28.9446 13.807 28.9446 15.2071Z" fill="#2C2F38"/>
<path d="M23.5437 31.2586C23.3149 31.2583 23.0869 31.2347 22.8626 31.1884C21.6334 30.8605 20.5605 30.1072 19.8349 29.062C19.5477 28.6967 19.6094 28.1677 19.9736 27.8784C20.3377 27.5894 20.8667 27.6485 21.1579 28.0111C21.6454 28.7341 22.3635 29.2706 23.1957 29.5319C24.337 29.7607 25.2484 28.7038 25.5655 28.2746V26.0039C25.5655 25.537 25.9434 25.1591 26.41 25.1591C26.8769 25.1591 27.2548 25.537 27.2548 26.0039V28.5382C27.2552 28.6915 27.2133 28.8414 27.1341 28.9726C27.0732 29.0747 25.7344 31.2586 23.5437 31.2586Z" fill="#802D40"/>
<path d="M29.275 31.2586C27.0858 31.2586 25.7471 29.0732 25.6862 28.9707C25.6073 28.8403 25.5654 28.6907 25.5654 28.5382V26.0039C25.5654 25.537 25.9434 25.1591 26.4099 25.1591C26.8769 25.1591 27.2548 25.537 27.2548 26.0039V28.278C27.5711 28.7079 28.4784 29.7708 29.6205 29.5345C30.4538 29.2739 31.1738 28.7378 31.6616 28.0137C31.8448 27.7655 32.1491 27.6372 32.4549 27.6787C32.7604 27.7202 33.0191 27.9251 33.1297 28.2133C33.2404 28.5012 33.185 28.8268 32.9854 29.062C32.2602 30.1076 31.1876 30.8624 29.9584 31.191C29.7334 31.237 29.5046 31.2594 29.275 31.2586Z" fill="#802D40"/>
<path d="M29.7895 23.7508C29.7895 24.6798 28.2766 26.004 26.41 26.004C24.5438 26.004 23.0308 24.6832 23.0308 23.7508C23.0308 22.8181 24.5438 22.6245 26.41 22.6245C28.2766 22.6245 29.7895 22.817 29.7895 23.7508Z" fill="#D75E72"/>
<path d="M26.41 12.6724C26.41 13.6055 25.6537 14.3622 24.7206 14.3622C23.7875 14.3622 23.0308 13.6055 23.0308 12.6724C23.0308 11.7393 23.7875 10.9827 24.7206 10.9827C25.6537 10.9827 26.41 11.7393 26.41 12.6724Z" fill="white"/>
</g>
<defs>
<clipPath id="clip0">
<rect width="49" height="49" fill="white"/>
</clipPath>
</defs>
</svg>
