<svg width="25" height="21" viewBox="0 0 25 21" fill="none" xmlns="http://www.w3.org/2000/svg">
<path d="M21.9481 0.987274H3.05711C1.37078 0.987274 0 2.35806 0 4.04438V16.9556C0 18.6419 1.37078 20.0127 3.05711 20.0127H21.9429C23.6292 20.0127 25 18.6419 25 16.9556V4.04955C25.0052 2.36323 23.6344 0.987274 21.9481 0.987274ZM23.6085 16.9556C23.6085 17.8712 22.8636 18.6161 21.9481 18.6161H3.05711C2.14153 18.6161 1.39665 17.8712 1.39665 16.9556V4.04955C1.39665 3.13397 2.14153 2.38909 3.05711 2.38909H21.9429C22.8585 2.38909 23.6034 3.13397 23.6034 4.04955V16.9556H23.6085Z" fill="black"/>
<path d="M15.7666 10.3396L21.8808 4.85651C22.1653 4.59787 22.1912 4.15818 21.9325 3.86851C21.6739 3.58401 21.2342 3.55814 20.9445 3.81678L12.5129 11.3845L10.868 9.91548C10.8628 9.91031 10.8576 9.90513 10.8576 9.89996C10.8214 9.86375 10.7852 9.83271 10.7438 9.80168L4.05025 3.81161C3.76057 3.55297 3.32089 3.57883 3.06225 3.86851C2.80361 4.15818 2.82947 4.59787 3.11915 4.85651L9.30578 10.3862L3.14501 16.1538C2.86568 16.4177 2.85017 16.8573 3.11398 17.1418C3.25364 17.2867 3.43986 17.3643 3.62608 17.3643C3.79678 17.3643 3.96748 17.3022 4.10198 17.178L10.3559 11.3276L12.0525 12.8433C12.187 12.9622 12.3525 13.0191 12.5181 13.0191C12.6836 13.0191 12.8543 12.9571 12.9836 12.8381L14.7268 11.2759L20.9445 17.1832C21.079 17.3125 21.2549 17.3746 21.4256 17.3746C21.6118 17.3746 21.7929 17.3022 21.9325 17.1574C22.1963 16.878 22.186 16.4332 21.9067 16.1694L15.7666 10.3396Z" fill="black"/>
</svg>
